<svg width="35" height="35" viewBox="0 0 35 35" fill="none" xmlns="http://www.w3.org/2000/svg">
<path d="M17.5035 9.43967C13.0418 9.43967 9.44305 13.0385 9.44305 17.5001C9.44305 21.9617 13.0418 25.5603 17.5035 25.5603C21.9651 25.5603 25.5638 21.9616 25.5638 17.5001C25.5638 13.0385 21.965 9.43967 17.5035 9.43967ZM17.5035 22.7404C14.6203 22.7404 12.2631 20.3902 12.2631 17.5001C12.2631 14.6099 14.6132 12.2598 17.5035 12.2598C20.3935 12.2598 22.7437 14.6099 22.7437 17.5001C22.7437 20.3902 20.3867 22.7404 17.5035 22.7404ZM27.7735 9.11004C27.7735 10.1553 26.9317 10.9901 25.8935 10.9901C24.8482 10.9901 24.0135 10.1483 24.0135 9.11004C24.0135 8.0718 24.8552 7.22995 25.8935 7.22995C26.9317 7.22995 27.7735 8.07173 27.7735 9.11004ZM33.112 11.018C32.9928 8.49972 32.4176 6.26882 30.5726 4.43091C28.7347 2.59293 26.5038 2.01768 23.9855 1.89149C21.3898 1.74418 13.6101 1.74418 11.0145 1.89149C8.50304 2.01064 6.27226 2.58595 4.42731 4.42393C2.58229 6.26191 2.01409 8.49268 1.88783 11.011C1.74052 13.6066 1.74052 21.3864 1.88783 23.982C2.00712 26.5005 2.58229 28.7312 4.42731 30.5692C6.27226 32.4072 8.49613 32.9824 11.0145 33.1086C13.61 33.2559 21.3898 33.2559 23.9855 33.1086C26.5039 32.9894 28.7347 32.414 30.5726 30.5692C32.4106 28.7311 32.9858 26.5005 33.112 23.982C33.2594 21.3865 33.2594 13.6136 33.112 11.018ZM29.7588 26.7671C29.2116 28.1419 28.1523 29.2013 26.7704 29.7555C24.7009 30.5764 19.7903 30.3868 17.5034 30.3868C15.2164 30.3868 10.2988 30.5693 8.23643 29.7555C6.86145 29.2082 5.80209 28.1491 5.24797 26.7671C4.42731 24.6976 4.6168 19.787 4.6168 17.5001C4.6168 15.2131 4.43435 10.2956 5.24803 8.23312C5.79532 6.85814 6.85448 5.79885 8.2365 5.24472C10.3059 4.42393 15.2165 4.61336 17.5035 4.61336C19.7903 4.61336 24.708 4.43097 26.7704 5.24472C28.1453 5.79174 29.2046 6.85117 29.7588 8.23312C30.5796 10.3025 30.3903 15.2131 30.3903 17.5001C30.3903 19.787 30.5796 24.7046 29.7588 26.7671Z" fill="#C4C4C4"/>
</svg>
