<svg width="64" height="64" viewBox="0 0 64 64" fill="none" xmlns="http://www.w3.org/2000/svg">
<path d="M63.5002 32.0001C63.5002 42.4001 55.1002 50.9001 44.6002 50.9001C34.2002 50.9001 25.7002 42.4001 25.7002 32.0001C25.7002 21.6001 34.1002 13.1001 44.5002 13.1001C55.1002 13.1001 63.5002 21.6001 63.5002 32.0001Z" fill="#FFB600"/>
<path d="M44.6002 13.1001C55.0002 13.1001 63.5002 21.6001 63.5002 32.0001C63.5002 42.4001 55.1002 50.9001 44.6002 50.9001C34.2002 50.9001 25.7002 42.4001 25.7002 32.0001" fill="#F7981D"/>
<path d="M44.6001 13.1001C55.0001 13.1001 63.5001 21.6001 63.5001 32.0001C63.5001 42.4001 55.1001 50.9001 44.6001 50.9001" fill="#FF8500"/>
<path d="M19.2 13.1001C8.9 13.2001 0.5 21.6001 0.5 32.0001C0.5 42.4001 8.9 50.9001 19.4 50.9001C24.3 50.9001 28.7 49.0001 32.1 46.0001C32.8 45.4001 33.4 44.7001 34 44.0001H30.1C29.6 43.4001 29.1 42.7001 28.7 42.1001H35.4C35.8 41.5001 36.2 40.8001 36.5 40.1001H27.6C27.3 39.5001 27 38.8001 26.8 38.1001H37.2C37.8 36.2001 38.2 34.2001 38.2 32.1001C38.2 30.7001 38 29.4001 37.8 28.1001H26.2C26.3 27.4001 26.5 26.8001 26.7 26.1001H37.1C36.9 25.4001 36.6 24.7001 36.3 24.1001H27.5C27.8 23.4001 28.2 22.8001 28.6 22.1001H35.3C34.9 21.4001 34.4 20.7001 33.8 20.1001H30.1C30.7 19.4001 31.3 18.8001 32 18.2001C28.7 15.1001 24.2 13.3001 19.3 13.3001C19.3 13.1001 19.3 13.1001 19.2 13.1001Z" fill="#FF5050"/>
<path d="M0.5 32C0.5 42.4 8.9 50.9001 19.4 50.9001C24.3 50.9001 28.7 49 32.1 46C32.8 45.4001 33.4 44.7001 34 44H30.1C29.6 43.4 29.1 42.7 28.7 42.1H35.4C35.8 41.5 36.2 40.8 36.5 40.1H27.6C27.3 39.5 27 38.8 26.8 38.1H37.2C37.8 36.2 38.2 34.2 38.2 32.1C38.2 30.7 38 29.4 37.8 28.1H26.2C26.3 27.4 26.5 26.8 26.7 26.1H37.1C36.9 25.4 36.6 24.7 36.3 24.1H27.5C27.8 23.4 28.2 22.8 28.6 22.1H35.3C34.9 21.4 34.4 20.7 33.8 20.1H30.1C30.7 19.4 31.3 18.8 32 18.2C28.7 15.1 24.2 13.3 19.3 13.3H19.2" fill="#E52836"/>
<path d="M19.4002 50.9001C24.3002 50.9001 28.7002 49 32.1002 46C32.8002 45.4001 33.4002 44.7001 34.0002 44H30.1002C29.6002 43.4 29.1002 42.7 28.7002 42.1H35.4002C35.8002 41.5 36.2002 40.8 36.5002 40.1H27.6002C27.3002 39.5 27.0002 38.8 26.8002 38.1H37.2002C37.8002 36.2 38.2002 34.2 38.2002 32.1C38.2002 30.7 38.0002 29.4 37.8002 28.1H26.2002C26.3002 27.4 26.5002 26.8 26.7002 26.1H37.1002C36.9002 25.4 36.6002 24.7 36.3002 24.1H27.5002C27.8002 23.4 28.2002 22.8 28.6002 22.1H35.3002C34.9002 21.4 34.4002 20.7 33.8002 20.1H30.1002C30.7002 19.4 31.3002 18.8 32.0002 18.2C28.7002 15.1 24.2002 13.3 19.3002 13.3H19.2002" fill="#CB2026"/>
<path d="M26.0997 36.8L26.3997 35.1C26.2997 35.1 26.0997 35.2 25.8997 35.2C25.1997 35.2 25.0997 34.8 25.1997 34.6L25.7997 31.1H26.8997L27.1997 29.2H26.1997L26.3997 28H24.3997C24.3997 28 23.1997 34.6 23.1997 35.4C23.1997 36.6 23.8997 37.1 24.7997 37.1C25.3997 37.1 25.8997 36.9 26.0997 36.8Z" fill="white"/>
<path d="M26.7998 33.6001C26.7998 36.4001 28.6998 37.1001 30.2998 37.1001C31.7998 37.1001 32.3998 36.8001 32.3998 36.8001L32.7998 34.9001C32.7998 34.9001 31.6998 35.4001 30.6998 35.4001C28.4998 35.4001 28.8998 33.8001 28.8998 33.8001H32.9998C32.9998 33.8001 33.2998 32.5001 33.2998 32.0001C33.2998 30.7001 32.5998 29.1001 30.3998 29.1001C28.2998 28.9001 26.7998 31.1001 26.7998 33.6001ZM30.2998 30.7001C31.3998 30.7001 31.1998 32.0001 31.1998 32.1001H28.9998C28.9998 32.0001 29.1998 30.7001 30.2998 30.7001Z" fill="white"/>
<path d="M43 36.8001L43.4 34.6001C43.4 34.6001 42.4 35.1001 41.7 35.1001C40.3 35.1001 39.7 34.0001 39.7 32.8001C39.7 30.4001 40.9 29.1001 42.3 29.1001C43.3 29.1001 44.1 29.7001 44.1 29.7001L44.4 27.6001C44.4 27.6001 43.2 27.1001 42.1 27.1001C39.8 27.1001 37.5 29.1001 37.5 32.9001C37.5 35.4001 38.7 37.1001 41.1 37.1001C41.9 37.1001 43 36.8001 43 36.8001Z" fill="white"/>
<path d="M15.0998 28.9001C13.6998 28.9001 12.6998 29.3001 12.6998 29.3001L12.3998 31.0001C12.3998 31.0001 13.2998 30.6001 14.5998 30.6001C15.2998 30.6001 15.8998 30.7001 15.8998 31.3001C15.8998 31.7001 15.7998 31.8001 15.7998 31.8001C15.7998 31.8001 15.1998 31.8001 14.8998 31.8001C13.1998 31.8001 11.2998 32.5001 11.2998 34.8001C11.2998 36.6001 12.4998 37.0001 13.1998 37.0001C14.5998 37.0001 15.1998 36.1001 15.2998 36.1001L15.1998 36.9001H16.9998L17.7998 31.4001C17.7998 29.0001 15.7998 28.9001 15.0998 28.9001ZM15.4998 33.4001C15.4998 33.7001 15.2998 35.3001 14.0998 35.3001C13.4998 35.3001 13.2998 34.8001 13.2998 34.5001C13.2998 34.0001 13.5998 33.3001 15.0998 33.3001C15.3998 33.4001 15.4998 33.4001 15.4998 33.4001Z" fill="white"/>
<path d="M19.6999 37C20.1999 37 22.6999 37.1001 22.6999 34.4001C22.6999 31.9001 20.2999 32.4 20.2999 31.4C20.2999 30.9 20.6999 30.7001 21.3999 30.7001C21.6999 30.7001 22.7999 30.8 22.7999 30.8L23.0999 29C23.0999 29 22.3999 28.8 21.1999 28.8C19.6999 28.8 18.1999 29.4 18.1999 31.4C18.1999 33.7 20.6999 33.5001 20.6999 34.4001C20.6999 35.0001 19.9999 35.1 19.4999 35.1C18.5999 35.1 17.6999 34.8 17.6999 34.8L17.3999 36.6C17.4999 36.8 17.9999 37 19.6999 37Z" fill="white"/>
<path d="M59.5999 27.3L59.1999 30C59.1999 30 58.3999 29 57.2999 29C55.4999 29 53.8999 31.2 53.8999 33.8C53.8999 35.4 54.6999 37.1 56.3999 37.1C57.5999 37.1 58.2999 36.3 58.2999 36.3L58.1999 37H60.1999L61.6999 27.4L59.5999 27.3ZM58.6999 32.6C58.6999 33.7 58.1999 35.1 57.0999 35.1C56.3999 35.1 55.9999 34.5 55.9999 33.5C55.9999 31.9 56.6999 30.9 57.5999 30.9C58.2999 30.9 58.6999 31.4 58.6999 32.6Z" fill="white"/>
<path d="M4.1998 36.9001L5.3998 29.7001L5.5998 36.9001H6.9998L9.5998 29.7001L8.4998 36.9001H10.5998L12.1998 27.3H8.8998L6.89981 33.2001L6.7998 27.3H3.8998L2.2998 36.9001H4.1998Z" fill="white"/>
<path d="M35.2 36.9001C35.8 33.6001 35.9 30.9001 37.3 31.4001C37.5 30.1001 37.8 29.6001 38 29.1001C38 29.1001 37.9 29.1001 37.6 29.1001C36.7 29.1001 36 30.3001 36 30.3001L36.2 29.2001H34.3L33 37.0001H35.2V36.9001Z" fill="white"/>
<path d="M47.5998 28.9001C46.1998 28.9001 45.1998 29.3001 45.1998 29.3001L44.8998 31.0001C44.8998 31.0001 45.7998 30.6001 47.0998 30.6001C47.7998 30.6001 48.3998 30.7001 48.3998 31.3001C48.3998 31.7001 48.2998 31.8001 48.2998 31.8001C48.2998 31.8001 47.6998 31.8001 47.3998 31.8001C45.6998 31.8001 43.7998 32.5001 43.7998 34.8001C43.7998 36.6001 44.9998 37.0001 45.6998 37.0001C47.0998 37.0001 47.6998 36.1001 47.7998 36.1001L47.6998 36.9001H49.4998L50.2998 31.4001C50.3998 29.0001 48.2998 28.9001 47.5998 28.9001ZM48.0998 33.4001C48.0998 33.7001 47.8998 35.3001 46.6998 35.3001C46.0998 35.3001 45.8998 34.8001 45.8998 34.5001C45.8998 34.0001 46.1998 33.3001 47.6998 33.3001C47.9998 33.4001 47.9998 33.4001 48.0998 33.4001Z" fill="white"/>
<path d="M51.9998 36.9001C52.5998 33.6001 52.6998 30.9001 54.0998 31.4001C54.2998 30.1001 54.5998 29.6001 54.7998 29.1001C54.7998 29.1001 54.6998 29.1001 54.3998 29.1001C53.4998 29.1001 52.7998 30.3001 52.7998 30.3001L52.9998 29.2001H51.0998L49.7998 37.0001H51.9998V36.9001Z" fill="white"/>
<path d="M23 35.4C23 36.6 23.7 37.1 24.6 37.1C25.3 37.1 25.9 36.9 26.1 36.8L26.4 35.1C26.3 35.1 26.1 35.2 25.9 35.2C25.2 35.2 25.1 34.8 25.2 34.6L25.8 31.1H26.9L27.2 29.2H26.2L26.4 28" fill="#DCE5E5"/>
<path d="M27.7998 33.6001C27.7998 36.4001 28.6998 37.1001 30.2998 37.1001C31.7998 37.1001 32.3998 36.8001 32.3998 36.8001L32.7998 34.9001C32.7998 34.9001 31.6998 35.4001 30.6998 35.4001C28.4998 35.4001 28.8998 33.8001 28.8998 33.8001H32.9998C32.9998 33.8001 33.2998 32.5001 33.2998 32.0001C33.2998 30.7001 32.5998 29.1001 30.3998 29.1001C28.2998 28.9001 27.7998 31.1001 27.7998 33.6001ZM30.2998 30.7001C31.3998 30.7001 31.5998 32.0001 31.5998 32.1001H28.9998C28.9998 32.0001 29.1998 30.7001 30.2998 30.7001Z" fill="#DCE5E5"/>
<path d="M43 36.8001L43.4 34.6001C43.4 34.6001 42.4 35.1001 41.7 35.1001C40.3 35.1001 39.7 34.0001 39.7 32.8001C39.7 30.4001 40.9 29.1001 42.3 29.1001C43.3 29.1001 44.1 29.7001 44.1 29.7001L44.4 27.6001C44.4 27.6001 43.2 27.1001 42.1 27.1001C39.8 27.1001 38.5 29.1001 38.5 32.9001C38.5 35.4001 38.7 37.1001 41.1 37.1001C41.9 37.1001 43 36.8001 43 36.8001Z" fill="#DCE5E5"/>
<path d="M12.3998 31.1001C12.3998 31.1001 13.2998 30.7001 14.5998 30.7001C15.2998 30.7001 15.8998 30.8001 15.8998 31.4001C15.8998 31.8001 15.7998 31.9001 15.7998 31.9001C15.7998 31.9001 15.1998 31.9001 14.8998 31.9001C13.1998 31.9001 11.2998 32.6001 11.2998 34.9001C11.2998 36.7001 12.4998 37.1001 13.1998 37.1001C14.5998 37.1001 15.1998 36.2001 15.2998 36.2001L15.1998 37.0001H16.9998L17.7998 31.5001C17.7998 29.2001 15.7998 29.1001 14.9998 29.1001L12.3998 31.1001ZM16.4998 33.4001C16.4998 33.7001 15.2998 35.3001 14.0998 35.3001C13.4998 35.3001 13.2998 34.8001 13.2998 34.5001C13.2998 34.0001 13.5998 33.3001 15.0998 33.3001C15.3998 33.4001 16.4998 33.4001 16.4998 33.4001Z" fill="#DCE5E5"/>
<path d="M17.5 36.8C17.5 36.8 18.1 37 19.8 37C20.3 37 22.8 37.1001 22.8 34.4001C22.8 31.9001 20.4 32.4 20.4 31.4C20.4 30.9 20.8 30.7001 21.5 30.7001C21.8 30.7001 22.9 30.8 22.9 30.8L23.2 29C23.2 29 22.5 28.8 21.3 28.8C19.8 28.8 19.3 29.4 19.3 31.4C19.3 33.7 20.8 33.5001 20.8 34.4001C20.8 35.0001 20.1 35.1 19.6 35.1" fill="#DCE5E5"/>
<path d="M59.1998 30.0001C59.1998 30.0001 58.3998 29.0001 57.2998 29.0001C55.4998 29.0001 54.8998 31.2001 54.8998 33.8001C54.8998 35.4001 54.6998 37.1001 56.3998 37.1001C57.5998 37.1001 58.2998 36.3001 58.2998 36.3001L58.1998 37.0001H60.1998L61.6998 27.4001L59.1998 30.0001ZM59.0998 32.6001C59.0998 33.7001 58.1998 35.1001 57.0998 35.1001C56.3998 35.1001 55.9998 34.5001 55.9998 33.5001C55.9998 31.9001 56.6998 30.9001 57.5998 30.9001C58.2998 30.9001 59.0998 31.4001 59.0998 32.6001Z" fill="#DCE5E5"/>
<path d="M4.1998 36.9001L5.3998 29.7001L5.5998 36.9001H6.9998L9.5998 29.7001L8.4998 36.9001H10.5998L12.1998 27.3H9.6998L6.89981 33.2001L6.7998 27.3H5.6998L2.2998 36.9001H4.1998Z" fill="#DCE5E5"/>
<path d="M33.0996 36.9001H35.1996C35.7996 33.6001 35.8996 30.9001 37.2996 31.4001C37.4996 30.1001 37.7996 29.6001 37.9996 29.1001C37.9996 29.1001 37.8996 29.1001 37.5996 29.1001C36.6996 29.1001 35.9996 30.3001 35.9996 30.3001L36.1996 29.2001" fill="#DCE5E5"/>
<path d="M44.8998 31.1001C44.8998 31.1001 45.7998 30.7001 47.0998 30.7001C47.7998 30.7001 48.3998 30.8001 48.3998 31.4001C48.3998 31.8001 48.2998 31.9001 48.2998 31.9001C48.2998 31.9001 47.6998 31.9001 47.3998 31.9001C45.6998 31.9001 43.7998 32.6001 43.7998 34.9001C43.7998 36.7001 44.9998 37.1001 45.6998 37.1001C47.0998 37.1001 47.6998 36.2001 47.7998 36.2001L47.6998 37.0001H49.4998L50.2998 31.5001C50.2998 29.2001 48.2998 29.1001 47.4998 29.1001L44.8998 31.1001ZM48.9998 33.4001C48.9998 33.7001 47.7998 35.3001 46.5998 35.3001C45.9998 35.3001 45.7998 34.8001 45.7998 34.5001C45.7998 34.0001 46.0998 33.3001 47.5998 33.3001C47.9998 33.4001 48.9998 33.4001 48.9998 33.4001Z" fill="#DCE5E5"/>
<path d="M49.8999 36.9001H51.9999C52.5999 33.6001 52.6999 30.9001 54.0999 31.4001C54.2999 30.1001 54.5999 29.6001 54.7999 29.1001C54.7999 29.1001 54.6999 29.1001 54.3999 29.1001C53.4999 29.1001 52.7999 30.3001 52.7999 30.3001L52.9999 29.2001" fill="#DCE5E5"/>
</svg>
