<svg width="35" height="35" viewBox="0 0 35 35" fill="none" xmlns="http://www.w3.org/2000/svg">
<g clip-path="url(#clip0)">
<path d="M6.5625 35.002C6.44146 35.002 6.31896 34.9713 6.20958 34.9101C5.97771 34.7817 5.83333 34.5382 5.83333 34.2728V29.2561C2.12188 26.0682 0 21.5386 0 16.7728C0 7.5255 7.85021 0.00195312 17.5 0.00195312C27.1498 0.00195312 35 7.5255 35 16.7728C35 26.0201 27.1498 33.5436 17.5 33.5436C15.2585 33.5436 13.0783 33.1426 11.0133 32.3522L6.94896 34.8911C6.83083 34.9655 6.69667 35.002 6.5625 35.002ZM17.5 1.46029C8.65521 1.46029 1.45833 8.32904 1.45833 16.7728C1.45833 21.2149 3.48833 25.4353 7.02625 28.3534C7.19396 28.4934 7.29167 28.699 7.29167 28.9163V32.9574L10.551 30.9201C10.7494 30.7961 10.9973 30.7757 11.2131 30.8632C13.2067 31.674 15.3213 32.0853 17.5 32.0853C26.3448 32.0853 33.5417 25.2165 33.5417 16.7728C33.5417 8.32904 26.3448 1.46029 17.5 1.46029Z" fill="#C4C4C4"/>
<path d="M6.56266 21.8777C6.33954 21.8777 6.11933 21.7756 5.97787 21.5846C5.76058 21.2944 5.78974 20.889 6.04641 20.6323L14.7964 11.8823C15.0647 11.611 15.4964 11.5965 15.7866 11.8444L20.5087 15.8912L28.0877 11.7569C28.4056 11.5833 28.8037 11.6694 29.021 11.961C29.2383 12.2512 29.2091 12.6567 28.9525 12.9133L20.2025 21.6633C19.9327 21.9331 19.501 21.9477 19.2122 21.7012L14.4902 17.6544L6.9112 21.7887C6.80183 21.8485 6.68224 21.8777 6.56266 21.8777ZM14.5835 16.0444C14.7541 16.0444 14.9233 16.1042 15.0575 16.2208L19.6483 20.1554L24.3412 15.464L20.7654 17.4137C20.5014 17.5581 20.1704 17.5246 19.9429 17.3262L15.352 13.3917L10.6591 18.0831L14.235 16.1333C14.3429 16.0735 14.4639 16.0444 14.5835 16.0444Z" fill="#C4C4C4"/>
</g>
<defs>
<clipPath id="clip0">
<rect width="35" height="35" fill="white"/>
</clipPath>
</defs>
</svg>
