<svg width="64" height="64" viewBox="0 0 64 64" fill="none" xmlns="http://www.w3.org/2000/svg">
<path d="M27.1 24.1001L24.5 39.9001H28.6L31.2 24.1001H27.1Z" fill="#0072FF"/>
<path d="M50.8001 24.1001C49.8001 24.1001 49.1001 24.4001 48.7001 25.4001L42.6001 40.0001H46.9001C46.9001 40.0001 47.6001 38.0001 47.8001 37.6001C48.3001 37.6001 52.4001 37.6001 53.0001 37.6001C53.1001 38.2001 53.5001 40.0001 53.5001 40.0001H57.3001L54.0001 24.1001H50.8001ZM48.9001 34.3001C49.2001 33.4001 50.5001 29.9001 50.5001 29.9001C50.5001 29.9001 50.8001 29.0001 51.0001 28.4001L51.3001 29.8001C51.3001 29.8001 52.1001 33.6001 52.3001 34.4001H48.9001V34.3001Z" fill="#0072FF"/>
<path d="M39.4001 30.5C38.0001 29.8 37.1001 29.3 37.1001 28.5C37.1001 27.8 37.8001 27.1 39.4001 27.1C40.7001 27.1 41.7001 27.4001 42.5001 27.7001L42.9001 27.9L43.5001 24.5C42.7001 24.2 41.4001 23.8 39.8001 23.8C35.8001 23.8 32.9001 26 32.9001 29C32.9001 31.3 34.9001 32.6 36.5001 33.3C38.1001 34.1 38.6001 34.6 38.6001 35.3C38.6001 36.4 37.3001 36.8 36.1001 36.8C34.5001 36.8 33.6001 36.6 32.2001 36L31.7001 35.7001L31.1001 39.2001C32.1001 39.6 33.8001 40 35.7001 40C40.0001 40 42.8001 37.9 42.8001 34.6C42.9001 33 41.8001 31.6 39.4001 30.5Z" fill="#0072FF"/>
<path d="M21.1002 24.1001L17.1002 34.9001L16.7002 32.7001L15.3002 25.4001C15.1002 24.4001 14.3002 24.1001 13.4002 24.1001H6.9002C6.8002 24.1001 6.8002 24.2001 6.7002 24.2001C6.7002 24.3001 6.7002 24.4001 6.8002 24.4001C7.8002 24.7001 8.7002 25.0001 9.5002 25.4001C10.4002 25.8001 11.0002 26.6001 11.3002 27.5001L14.6002 39.9001H18.9002L25.3002 24.1001H21.1002Z" fill="#0072FF"/>
</svg>
