<svg width="34" height="35" viewBox="0 0 34 35" fill="none" xmlns="http://www.w3.org/2000/svg">
<path fill-rule="evenodd" clip-rule="evenodd" d="M17.0712 33.2211C14.2108 33.2211 11.5235 32.49 9.18556 31.2069L0.153809 34.077L3.09805 25.3919C1.61301 22.9524 0.757501 20.0916 0.757501 17.0336C0.757501 8.09345 8.06125 0.846191 17.0716 0.846191C26.0808 0.846191 33.3846 8.09345 33.3846 17.0336C33.3846 25.9738 26.0812 33.2211 17.0712 33.2211ZM17.0712 3.42416C9.5079 3.42416 3.35578 9.52939 3.35578 17.0336C3.35578 20.0115 4.32649 22.7693 5.96809 25.0131L4.25485 30.0671L9.52526 28.3919C11.6912 29.8138 14.2854 30.6431 17.0712 30.6431C24.6334 30.6431 30.7867 24.5383 30.7867 17.034C30.7867 9.52976 24.6334 3.42416 17.0712 3.42416ZM25.3088 20.7618C25.2083 20.5967 24.9417 20.497 24.5426 20.2987C24.1424 20.1005 22.1758 19.1401 21.8099 19.0083C21.4429 18.8761 21.176 18.8093 20.9097 19.2066C20.6435 19.6039 19.877 20.497 19.6433 20.7618C19.4099 21.0269 19.1769 21.0601 18.7771 20.8615C18.3776 20.6632 17.0889 20.2441 15.5611 18.8923C14.3725 17.8408 13.5698 16.5426 13.3368 16.1449C13.1035 15.748 13.3121 15.5335 13.5122 15.3359C13.692 15.1579 13.9121 14.8725 14.1122 14.641C14.3123 14.4091 14.3788 14.2441 14.5117 13.979C14.6454 13.7143 14.5785 13.4827 14.4785 13.2837C14.3784 13.0855 13.5783 11.133 13.2453 10.3384C12.9122 9.54453 12.5795 9.67671 12.3458 9.67671C12.1125 9.67671 11.8459 9.64348 11.5793 9.64348C11.3127 9.64348 10.8792 9.74281 10.5126 10.1397C10.1463 10.537 9.11356 11.497 9.11356 13.4491C9.11356 15.4016 10.5458 17.288 10.7463 17.5524C10.9461 17.8168 13.5118 21.9536 17.5767 23.5424C21.643 25.1309 21.643 24.601 22.3763 24.5349C23.1085 24.4688 24.7413 23.5753 25.0754 22.6489C25.4081 21.7218 25.4081 20.9272 25.3088 20.7618Z" fill="#C4C4C4"/>
</svg>
